<svg width="60" height="40" viewBox="0 0 60 40" fill="none" xmlns="http://www.w3.org/2000/svg">
  <!-- American Express Official Logo -->
  <rect width="60" height="40" rx="4" fill="#006FCF"/>
  <path d="M8.294 14.001h3.552l.787 1.875.787-1.875h3.552v10.494h-2.239v-6.682l-1.482 3.536h-1.236l-1.482-3.536v6.682H8.294V14.001zm18.188 0l2.976 10.494h-2.438l-.469-1.768h-3.091l-.469 1.768h-2.438l2.976-10.494h2.953zm-.951 6.602l-.939-3.536-.939 3.536h1.878zm5.483-6.602h5.631v2.125H33.17v1.768h2.876v2.125H33.17v2.35h3.475v2.126h-5.631V14.001zm11.262 0l1.547 2.607 1.547-2.607h2.876l-3.012 5.247v5.247h-2.822v-5.247l-3.012-5.247h2.876z" fill="white"/>
</svg>
