<svg xmlns="http://www.w3.org/2000/svg" width="150" height="100" viewBox="0 0 150 100">
  <!-- Official American Express Logo -->
  <rect width="150" height="100" fill="#006FCF" rx="8"/>
  <g fill="#FFFFFF">
    <!-- AMERICAN -->
    <path d="M25 35h5.5l1.2 3 1.2-3h5.5v16h-3.5v-10.5l-2.4 5.8h-2l-2.4-5.8V51H25V35z"/>
    <path d="M47.5 35l4.8 16h-3.9l-.8-2.8h-5l-.8 2.8h-3.9l4.8-16h4.8zm-1.5 10.5l-1.5-5.3-1.5 5.3h3z"/>
    <path d="M56 35h9v3.4h-5.5v2.8h4.6v3.4h-4.6v3.8h5.5V51h-9V35z"/>
    <path d="M69 35h7.2c2 0 3.4.5 4.3 1.4.7.8 1.1 1.8 1.1 3.1 0 1.9-.8 3.3-2.3 4.1l2.7 7.4h-3.9l-2.2-6.5h-3.4V51H69V35zm3.5 7h2.8c.8 0 1.4-.2 1.8-.5.4-.4.6-.9.6-1.5s-.2-1.1-.6-1.5c-.4-.3-1-.5-1.8-.5h-2.8v4z"/>
    <path d="M86 35h3.5v16H86V35z"/>
    <path d="M100.5 35.2c1.2 0 2.3.2 3.3.7 1 .5 1.8 1.1 2.4 2 .6.8 1.1 1.8 1.3 2.9.3 1.1.4 2.3.4 3.5 0 1.2-.1 2.3-.4 3.4-.3 1.1-.7 2.1-1.3 2.9-.6.8-1.4 1.5-2.4 2s-2.2.7-3.5.7c-1.3 0-2.4-.2-3.4-.7-1-.5-1.8-1.1-2.4-2-.6-.8-1-1.8-1.3-2.9-.3-1.1-.4-2.2-.4-3.4 0-1.2.1-2.4.4-3.5.3-1.1.7-2.1 1.3-2.9.6-.8 1.4-1.5 2.4-2 1-.5 2.1-.7 3.4-.7zm0 3.3c-1.6 0-2.7 1.2-2.7 3.6v1.8c0 2.4 1.1 3.6 2.7 3.6 1.6 0 2.7-1.2 2.7-3.6v-1.8c0-2.4-1.1-3.6-2.7-3.6z"/>
    <path d="M113 35l4 9.8V51h-3.5v-6.2L109.5 35H113z"/>
    <!-- EXPRESS -->
    <path d="M25 60h9v3.4h-5.5v2.8h4.6v3.4h-4.6v3.8h5.5V76h-9V60z"/>
    <path d="M38 60h5.5l2.5 5 2.5-5h5.5l-5 8 5.2 8h-5.5l-2.7-5.4-2.7 5.4h-5.5l5.2-8-5-8z"/>
    <path d="M59 60h7.2c2 0 3.4.5 4.3 1.4.7.8 1.1 1.8 1.1 3.1 0 1.9-.8 3.3-2.3 4.1l2.7 7.4h-3.9l-2.2-6.5h-3.4V76H59V60zm3.5 7h2.8c.8 0 1.4-.2 1.8-.5.4-.4.6-.9.6-1.5s-.2-1.1-.6-1.5c-.4-.3-1-.5-1.8-.5h-2.8v4z"/>
    <path d="M76 60h9v3.4h-5.5v2.8h4.6v3.4h-4.6v3.8h5.5V76h-9V60z"/>
    <path d="M90.5 60.2c1.2 0 2.3.2 3.2.6.9.4 1.7.9 2.3 1.6l-2.5 2.6c-.8-.8-1.7-1.2-2.8-1.2-.6 0-1.1.1-1.4.4-.3.3-.5.6-.5 1 0 .5.2.9.7 1.1.5.3 1.1.5 2 .7.9.2 1.7.5 2.5.8.8.3 1.4.8 2 1.4.6.6.8 1.5.8 2.5 0 .8-.2 1.6-.6 2.2-.4.7-1 1.2-1.8 1.6-.8.4-1.7.6-2.8.6-1.4 0-2.6-.3-3.7-.8-1.1-.6-2-1.3-2.6-2.3l2.7-2.4c.9 1.1 2 1.6 3.3 1.6.7 0 1.2-.1 1.6-.4.4-.3.6-.7.6-1.2 0-.5-.2-.9-.7-1.2-.5-.3-1.1-.5-2-.7-.9-.2-1.7-.5-2.5-.8-.8-.3-1.4-.8-2-1.4-.6-.6-.8-1.4-.8-2.4 0-.8.2-1.5.6-2.2.4-.7 1-1.2 1.7-1.6.8-.4 1.7-.6 2.7-.6z"/>
    <path d="M103.5 60.2c1.2 0 2.3.2 3.2.6.9.4 1.7.9 2.3 1.6l-2.5 2.6c-.8-.8-1.7-1.2-2.8-1.2-.6 0-1.1.1-1.4.4-.3.3-.5.6-.5 1 0 .5.2.9.7 1.1.5.3 1.1.5 2 .7.9.2 1.7.5 2.5.8.8.3 1.4.8 2 1.4.6.6.8 1.5.8 2.5 0 .8-.2 1.6-.6 2.2-.4.7-1 1.2-1.8 1.6-.8.4-1.7.6-2.8.6-1.4 0-2.6-.3-3.7-.8-1.1-.6-2-1.3-2.6-2.3l2.7-2.4c.9 1.1 2 1.6 3.3 1.6.7 0 1.2-.1 1.6-.4.4-.3.6-.7.6-1.2 0-.5-.2-.9-.7-1.2-.5-.3-1.1-.5-2-.7-.9-.2-1.7-.5-2.5-.8-.8-.3-1.4-.8-2-1.4-.6-.6-.8-1.4-.8-2.4 0-.8.2-1.5.6-2.2.4-.7 1-1.2 1.7-1.6.8-.4 1.7-.6 2.7-.6z"/>
  </g>
</svg>