<svg viewBox="0 0 560 400" xmlns="http://www.w3.org/2000/svg" width="70" height="50">
  <rect fill="#006fcf" width="560" height="400"/>
  <g fill="#fff">
    <path d="M152.407 157.641L139.604 186.18h25.605l-12.802-28.539zm237.478 0L377.082 186.18h25.605l-12.802-28.539zM423.048 68.217c-11.117 0-20.024 5.072-26.724 12.478V71.073h-36.766L344.101 108.2l-14.609-37.127h-68.243v10.531c-6.7-7.406-15.605-12.478-26.723-12.478h-51.025l-8.509 19.381-8.806-19.381H110.02v10.531c-5.607-7.406-14.808-12.478-25.924-12.478H33.821L.003 154.106h47.229c11.117 0 20.321-5.073 26.021-12.478v12.478h40.859l8.807-20.575h20.024l8.806 20.575h86.341v-15.552l7.702 15.552H270.4l7.703-15.85v15.85h107.457l12.803-13.375 11.912 13.375 51.023.298-32.021-43.032 32.021-42.735h-50.13l-12.804 13.077-11.911-13.077h-111.55v10.531c-6.698-7.405-15.604-12.478-26.721-12.478h-45.636zm-321.625 15.85h17.232c9.103 0 15.309 5.966 15.309 14.57 0 8.603-6.206 14.568-15.309 14.568h-17.232V84.067zm142.138 0h16.936v61.853l-39.371-61.853h-18.425v83.239h16.936v-62.448l40.264 62.448h16.638V84.067h-16.936zm65.718 0v13.672h25.627v69.567h17.234V97.739h25.626V84.067H309.279zm126.477 10.531c10.014 0 19.72 7.406 19.72 25.696 0 15.254-6.403 25.696-19.72 25.696-13.317 0-19.72-11.041-19.72-25.696 0-17.394 8.509-25.696 19.72-25.696zm-151.506.894l24.533 58.412h-17.53l-4.71-11.339h-27.425l-4.71 11.339H236.88l24.533-58.412h22.837zm144.41 0l29.539 31.716 29.837-31.716h-59.376zm-313.592 5.669v20.278h16.341c5.607 0 9.104-3.579 9.104-10.139 0-6.56-3.498-10.139-9.104-10.139h-16.341zm248.775 18.786l17.234 18.786-17.234 18.486v-37.272zm49.717 0v37.272l17.233-18.486-17.233-18.786zm-176.348 3.876v13.375h29.838v13.672h-29.838v15.254h33.928l15.308-16.149-14.809-16.149H237.712v-10.003h38.471l14.809-15.851-15.308-15.851h-53.656v13.672h29.838v13.375h-29.838z"/>
  </g>
</svg>
