<!-- Official American Express Logo - Based on Amex Brand Guidelines -->
<svg xmlns="http://www.w3.org/2000/svg" viewBox="0 0 300 200" width="90" height="60">
  <rect fill="#006FCF" width="300" height="200" rx="10"/>
  <g fill="#FFFFFF">
    <polygon points="59.4,84.3 52.3,99.9 66.5,99.9"/>
    <polygon points="129.4,84.3 122.3,99.9 136.5,99.9"/>
    <path d="M158.8,62c-6.4,0-11.5,2.9-15.4,7.2v-5.6h-21.2l-8.4,21.4-8.4-21.4h-39.3v6.1c-3.2-4.3-8.5-7.2-14.9-7.2h-29.6l-17.2,52.7h27.2c6.4,0,11.7-2.9,15-7.2v7.2h23.5l5.1-13.2h11.5l5.1,13.2h49.7v-9.5l4.4,9.5h25.8l4.4-9.7v9.7h61.9l7.4-8.2 6.9,8.2h29.4l-18.4-26.3 18.4-26.4h-28.9l-7.3,7.9-6.8-7.9h-64.3v6.1c-3.9-4.2-9.1-7.2-15.4-7.2H158.8zM48.7,72.5h9.9c5.2,0 8.8,3.5 8.8,8.4 0,4.9-3.6,8.4-8.8,8.4h-9.9V72.5zM103.6,72.5h9.8v35.7l-22.7-35.7h-10.6v47.9h9.8v-36.4l23.7,36.4h9.8V72.5zM159.1,72.5h14.8v8.3h-14.8v8.5h14.8v8.3h-14.8v8.5h14.8v8.3h-24.6V72.5H159.1zM208.1,78.9c-5.8,0-11.4,4.3-11.4,14.8 0,8.8 3.7,14.8 11.4,14.8 7.7,0 11.4-6.1 11.4-14.8C219.4,84.9 215.7,78.9 208.1,78.9zM93.5,85.8l14.1,33.5h-10.1l-2.7-6.9h-15.8l-2.7,6.9h-10.1l14.1-33.5H93.5zM241.5,91.6l17,17.7-17,17.7V91.6zM163.5,85.8l14.1,33.5h-10.1l-2.7-6.9h-15.8l-2.7,6.9h-10.1l14.1-33.5H163.5zM260.6,91.6v17.7l17-17.7H260.6z"/>
  </g>
</svg>