<svg xmlns="http://www.w3.org/2000/svg" width="150" height="60" viewBox="0 0 150 60">
  <!-- Official PayPal Logo from Logo Center -->
  <g>
    <path fill="#003087" d="M46.211 6.749h-6.839c-.468 0-.866.34-.939.803l-2.766 17.537c-.055.346.213.658.564.658h3.265c.468 0 .866-.34.939-.803l.746-4.73c.072-.463.471-.803.938-.803h2.165c4.505 0 7.105-2.18 7.784-6.5.306-1.89.013-3.375-.872-4.415-.972-1.142-2.696-1.746-4.985-1.746zm.789 6.405c-.374 2.454-2.249 2.454-4.062 2.454h-1.032l.724-4.583c.043-.277.283-.481.563-.481h.473c1.235 0 2.4 0 3.002.704.359.42.468 1.044.332 1.906zM66.654 13.075h-3.275c-.279 0-.52.204-.563.481l-.145.916-.229-.332c-.709-1.029-2.29-1.373-3.868-1.373-3.619 0-6.71 2.741-7.312 6.586-.313 1.918.132 3.752 1.22 5.031.998 1.176 2.426 1.666 4.125 1.666 2.916 0 4.533-1.875 4.533-1.875l-.146.91c-.055.348.213.66.562.66h2.95c.469 0 .865-.34.939-.803l1.77-11.209c.055-.347-.213-.658-.561-.658zm-4.565 6.374c-.316 1.871-1.801 3.127-3.695 3.127-.951 0-1.711-.305-2.199-.883-.484-.574-.668-1.391-.514-2.301.295-1.855 1.805-3.152 3.67-3.152.93 0 1.686.309 2.184.892.499.589.697 1.411.554 2.317zM84.096 13.075h-3.291c-.314 0-.609.156-.787.417l-4.539 6.686-1.924-6.425c-.121-.402-.492-.678-.912-.678h-3.234c-.393 0-.666.384-.541.754l3.625 10.638-3.408 4.811c-.268.379.002.9.465.9h3.287c.312 0 .604-.153.781-.408L84.564 13.9c.264-.379-.006-.825-.468-.825z"/>
    <path fill="#009CDE" d="M94.992 6.749h-6.84c-.467 0-.865.34-.938.803l-2.766 17.537c-.055.346.213.658.562.658h3.51c.326 0 .605-.238.656-.562l.785-4.971c.072-.463.471-.803.938-.803h2.164c4.506 0 7.105-2.18 7.785-6.5.307-1.89.012-3.375-.873-4.415-.971-1.142-2.694-1.746-4.983-1.746zm.788 6.405c-.373 2.454-2.248 2.454-4.062 2.454h-1.031l.725-4.583c.043-.277.281-.481.562-.481h.473c1.234 0 2.4 0 3.002.704.359.42.467 1.044.331 1.906zM115.434 13.075h-3.273c-.281 0-.52.204-.562.481l-.145.916-.23-.332c-.709-1.029-2.289-1.373-3.867-1.373-3.619 0-6.709 2.741-7.311 6.586-.312 1.918.131 3.752 1.219 5.031 1 1.176 2.426 1.666 4.125 1.666 2.916 0 4.533-1.875 4.533-1.875l-.146.91c-.055.348.213.66.564.66h2.949c.467 0 .865-.34.938-.803l1.771-11.209c.054-.347-.214-.658-.565-.658zm-4.565 6.374c-.314 1.871-1.801 3.127-3.695 3.127-.949 0-1.711-.305-2.199-.883-.484-.574-.666-1.391-.512-2.301.293-1.855 1.803-3.152 3.67-3.152.93 0 1.686.309 2.184.892.501.589.699 1.411.552 2.317zM119.295 7.23l-2.807 17.858c-.055.346.213.658.562.658h2.822c.469 0 .867-.34.939-.803l2.768-17.536c.055-.346-.213-.659-.562-.659h-3.16c-.279.001-.52.205-.562.482z"/>
  </g>
</svg>