<svg width="60" height="26" viewBox="0 0 60 26" fill="none" xmlns="http://www.w3.org/2000/svg">
  <!-- Stripe Official Logo -->
  <path fill-rule="evenodd" clip-rule="evenodd" d="M27.3 10.1c0-.9-.6-1.3-1.7-1.3-1.2 0-2.7.4-3.9 1v-3.6c1.3-.5 2.6-.9 4-.9 3.3 0 5.5 1.7 5.5 4.6v6.8h-3.7l-.2-.8c-.7.6-1.7 1.1-3 1.1-2.2 0-4-.7-4-3.2 0-2.7 2-3.2 4.8-3.4 1-.1 1.7-.2 2.2-.4v-.9zm-2.2 4.7c.9 0 1.6-.3 2.2-.8v-1.3c-.3.2-.8.3-1.4.4-1.2.2-2 .4-2 1.1 0 .5.5.6 1.2.6zM38.7 5.2c1.2 0 2.1.2 2.7.4v3.5c-.6-.3-1.3-.5-2.1-.5-1.2 0-2.3.5-2.3 2.2v5.9h-3.9V5.5h3.7v1.2c.6-.8 1.6-1.5 2-.1.5zm6 11.4h-3.9V5.5h3.9v11.1zm-2-13.8c1.2 0 2.2.9 2.2 2.1 0 1.2-1 2.1-2.2 2.1-1.2 0-2.2-.9-2.2-2.1 0-1.2 1-2.1 2.2-2.1zm6.5 1.1V9h2.7v3.1h-2.7v3c0 1.2.5 1.6 1.4 1.6.5 0 .9-.1 1.3-.2v3.1c-.6.2-1.3.3-2.1.3-2.4 0-4.5-.7-4.5-3.9V9h-1.6V5.9h.4c1 0 1.8-.8 1.8-1.8V2.5h3.3v1.4zm13.7 2.4c-4.2 0-6.5 2.9-6.5 6.6 0 4.4 2.8 6.5 6.8 6.5 1.9 0 3.4-.4 4.7-1.1V16c-1.2.6-2.5.9-4.2.9-1.8 0-3.3-.6-3.6-2.7h8.9c0-.3.1-.8.1-1.3.1-4.1-1.8-6.6-6.2-6.6zm-2.4 5.3c.2-1.4 1.1-2.3 2.4-2.3 1.4 0 2.2.9 2.2 2.3h-4.6zM13.9 13c0-1.6-1-2.5-3.5-2.5-1.6 0-3.2.4-4.6 1.1V.8C7.4.3 9 0 10.5 0c4.9 0 8.2 2.5 8.2 6.9v13h-4.8V13zm0 0" fill="#635BFF"/>
</svg>
