<svg xmlns="http://www.w3.org/2000/svg" width="120" height="40" viewBox="0 0 120 40">
  <!-- Official Visa Logo from Brand Guidelines -->
  <defs>
    <style>
      .visa-blue { fill: #1434CB; }
      .visa-white { fill: #FFFFFF; }
    </style>
  </defs>
  <rect width="120" height="40" rx="4" fill="white"/>
  <path class="visa-blue" d="M51.5 12.5l-4.2 15h-3.5l-4.2-15h3.8l2.3 9.8 2.5-9.8h3.3zm8.4 0l-3.4 15h-3.2l3.4-15h3.2zm15.6 9.8l1.8-4.9.8 4.9h-2.6zm3.9 5.2h3.3l-2.9-15h-3c-.7 0-1.3.4-1.5 1l-5.3 14h3.7l.7-2.1h4.6l.4 2.1zM66.3 17.8c0-2.9-4.1-3.1-4.1-4.4 0-.4.4-.8 1.2-.9.4-.1 1.5-.1 2.7.5l.5-2.4c-.7-.2-1.5-.5-2.6-.5-3.5 0-6 1.9-6 4.5 0 2 1.8 3.1 3.1 3.7 1.4.7 1.8 1.1 1.8 1.7 0 .9-1.1 1.3-2.1 1.3-1.8 0-2.8-.5-3.6-.9l-.6 3c.8.4 2.3.7 3.9.7 3.7 0 6.1-1.8 6.1-4.6l-.3-.7z"/>
</svg>