<svg viewBox="0 0 141.732 141.732" xmlns="http://www.w3.org/2000/svg" width="60" height="60">
  <g fill="#1434cb">
    <path d="m62.935 89.571h-9.733l6.083-37.384h9.734z"/>
    <path d="m45.014 52.187l-9.32 25.384-.001-.001-1.067-5.264s-2.911-12.5-12.03-25.917h10.381s4.807.026 6.541 3.293l3.241 8.264 8.255-11.558z"/>
    <path d="m122.146 52.187h-8.522c-2.028 0-3.557 1.037-4.445 3.293l-12.635 34.091h10.374l2.062-5.72h12.684l1.196 5.72h9.145zm-11.678 21.548l5.184-14.28 2.906 14.28z"/>
    <path d="m96.886 61.103c0-3.626-.729-6.961-2.623-9.741-4.262-6.25-12.332-6.875-17.641-6.875-3.146 0-10.379.436-14.641 2.917l2.188 8.333s4.557-2.083 8.99-2.083c2.083 0 4.948.156 6.51 1.562 1.042.938 1.25 2.083 1.25 3.438v1.042c-8.281-.313-19.531.208-26.562 4.792-3.542 2.292-5.833 5.937-5.833 11.042 0 7.083 5.312 12.812 13.021 12.812 5.208 0 8.021-1.562 10.937-4.167 1.146 1.354 2.187 2.5 3.437 3.438 1.875 1.354 3.96 1.667 5.521 1.667h4.792l-3.334-7.396c-1.979-1.25-2.5-3.021-2.5-5.208v-11.771l-.012-2.802zm-10.104 7.188c0 1.666-.104 3.437-.833 4.687-.938 1.667-2.604 2.917-4.583 2.917-2.5 0-3.958-1.667-3.958-4.062 0-4.687 5.208-5.833 9.374-5.833z"/>
  </g>
</svg>
