<svg width="60" height="20" viewBox="0 0 60 20" fill="none" xmlns="http://www.w3.org/2000/svg">
  <!-- Visa Official Logo -->
  <rect width="60" height="20" fill="white"/>
  <path d="M24.158 3.012h-4.262l-2.667 13.512h4.263l2.666-13.512zm12.236 8.731l2.249-6.197.294 6.197h-2.543zm4.727 4.781h3.935L42.22 3.012h-3.627c-.817 0-1.504.475-1.809 1.207l-6.362 12.305h4.479l.891-2.464h5.474l.517 2.464zM33.658 9.924c.018-3.564-4.926-3.762-4.893-5.353.011-.485.473-.999 1.483-1.131.5-.066 1.88-.116 3.441.604l.614-2.861C33.527.898 32.428.533 30.957.533c-4.213 0-7.179 2.24-7.204 5.447-.027 2.371 2.117 3.694 3.733 4.482 1.66.808 2.218 1.325 2.21 2.046-.011 1.103-1.321 1.594-2.543 1.613-2.138.035-3.377-.578-4.366-1.039l-.771 3.598c.993.457 2.829.854 4.734.872 4.48 0 7.407-2.212 7.426-5.638l-.001-.009-.517.019zm-15.895-9.412L13.152 16.524h-4.487L11.471 3.655c.41-1.577 1.582-2.143 2.98-2.143h11.405l-.681 3.116-.011.012H17.76v-.128h.003z" fill="#1434CB"/>
</svg>
