<!-- Official Visa Logo - Based on Visa Brand Guidelines -->
<svg xmlns="http://www.w3.org/2000/svg" viewBox="0 0 141.732 141.732" width="80" height="80">
  <g fill="#1A1F71">
    <path d="M60.5 51.2L54.3 76.2h6.5l6.2-25z"/>
    <path d="M44.9 51.2L33.4 68.9l-1.2-5.6s-3.2-13.2-12.7-25.6h11.1c1 0 2.7 1 3.5 3.3l3.5 8.8 8.3-12.6h10.5z"/>
    <path d="M100.6 51.2h-8.3c-1.8 0-3.4 1.1-4.4 3.3l-13.5 37.2h11.7l2.3-6.6h14.6l1.3 6.6h10.3L100.6 51.2zm-13.2 23.5l5.9-15.6 3.3 15.6H87.4z"/>
    <path d="M77.9 59.8c0-3.8-.8-7.3-2.9-10.2-4.6-6.5-12.9-7.1-18.5-7.1-3.3 0-10.8.4-15.3 3l2.3 8.8c1.9-.9 5-2.2 9.4-2.2 2.2 0 5.2.2 6.8 1.6 1.1.9 1.3 2.2 1.3 3.6v1.1c-8.7-.3-20.4.2-27.8 5-3.7 2.4-6.1 6.2-6.1 11.6 0 7.4 5.6 13.4 13.6 13.4 5.5 0 8.4-1.6 11.5-4.4 1.2 1.4 2.3 2.6 3.6 3.6 2 1.4 4.2 1.7 5.8 1.7h5l-3.5-7.8c-2.1-1.3-2.6-3.2-2.6-5.5V59.8h.4zm-11 7.5c0 1.8-.1 3.6-.9 4.9-1 1.8-2.8 3.1-4.9 3.1-2.6 0-4.2-1.7-4.2-4.3 0-4.9 5.5-6.1 10-6.1v2.4z"/>
  </g>
</svg>